<svg width="25" height="25" viewBox="0 0 25 25" fill="none" xmlns="http://www.w3.org/2000/svg">
<path d="M12.027 23.0541C18.1171 23.0541 23.0541 18.1171 23.0541 12.027C23.0541 5.93697 18.1171 1 12.027 1C5.93697 1 1 5.93697 1 12.027C1 18.1171 5.93697 23.0541 12.027 23.0541Z" stroke="black" stroke-width="2" stroke-miterlimit="10"/>
<path d="M12.0312 1V23.0541" stroke="black" stroke-width="2" stroke-miterlimit="10"/>
<path d="M23.0541 12.0273H1" stroke="black" stroke-width="2"/>
<path d="M12.0248 23.0541C15.3263 23.0541 18.0028 18.1171 18.0028 12.027C18.0028 5.93697 15.3263 1 12.0248 1C8.72329 1 6.04688 5.93697 6.04688 12.027C6.04688 18.1171 8.72329 23.0541 12.0248 23.0541Z" stroke="black" stroke-width="2" stroke-miterlimit="10"/>
</svg>
