<svg width="26" height="26" viewBox="0 0 26 26" fill="none" xmlns="http://www.w3.org/2000/svg">
<path d="M13 0C9.46942 0 9.02671 0.0149779 7.6401 0.0782181C6.25641 0.141342 5.3114 0.361135 4.48448 0.682444C3.62962 1.01467 2.90464 1.45921 2.18194 2.1819C1.45921 2.9046 1.01467 3.62965 0.682483 4.48452C0.361096 5.3114 0.141381 6.25641 0.0781794 7.6401C0.0149392 9.02671 0 9.46942 0 13C0 16.5306 0.0149392 16.9733 0.0781794 18.3599C0.141381 19.7436 0.361096 20.6886 0.682483 21.5155C1.01471 22.3703 1.45925 23.0953 2.18194 23.8181C2.90468 24.5408 3.62962 24.9853 4.48448 25.3176C5.3114 25.6389 6.25641 25.8586 7.6401 25.9218C9.02671 25.985 9.46942 26 13 26C16.5306 26 16.9733 25.985 18.3599 25.9218C19.7436 25.8587 20.6886 25.6389 21.5155 25.3176C22.3703 24.9853 23.0953 24.5408 23.8181 23.8181C24.5408 23.0953 24.9853 22.3703 25.3176 21.5155C25.6389 20.6886 25.8587 19.7436 25.9218 18.3599C25.985 16.9733 26 16.5306 26 13C26 9.46942 25.985 9.02671 25.9218 7.6401C25.8587 6.25641 25.6389 5.3114 25.3176 4.48452C24.9853 3.62965 24.5408 2.9046 23.8181 2.1819C23.0953 1.45921 22.3703 1.01467 21.5155 0.682444C20.6886 0.361135 19.7436 0.141342 18.3599 0.0782181C16.9733 0.0149779 16.5306 0 13 0ZM13 2.34233C16.4711 2.34233 16.8823 2.3556 18.2531 2.41814C19.5206 2.47593 20.209 2.68771 20.667 2.86574C21.2739 3.10159 21.7069 3.38327 22.1618 3.83818C22.6167 4.2931 22.8984 4.72618 23.1343 5.33296C23.3123 5.79104 23.5241 6.47941 23.5819 7.74688C23.6444 9.1177 23.6577 9.52887 23.6577 13C23.6577 16.4711 23.6444 16.8823 23.5819 18.2531C23.5241 19.5206 23.3123 20.209 23.1343 20.667C22.8984 21.2739 22.6167 21.7069 22.1618 22.1618C21.7069 22.6167 21.2738 22.8984 20.667 23.1343C20.209 23.3123 19.5206 23.5241 18.2531 23.5819C16.8825 23.6444 16.4714 23.6577 13 23.6577C9.5286 23.6577 9.11754 23.6444 7.74688 23.5818C6.47937 23.5241 5.79104 23.3123 5.333 23.1343C4.72614 22.8984 4.2931 22.6167 3.83822 22.1618C3.38331 21.7069 3.10159 21.2738 2.86574 20.667C2.68771 20.209 2.47597 19.5206 2.41814 18.2531C2.3556 16.8823 2.34233 16.4711 2.34233 13C2.34233 9.52887 2.3556 9.1177 2.41814 7.74688C2.47597 6.47937 2.68771 5.79104 2.86574 5.333C3.10159 4.72614 3.38331 4.2931 3.83818 3.83822C4.2931 3.38327 4.72618 3.10159 5.33296 2.86574C5.79104 2.68771 6.47941 2.47593 7.74688 2.41814C9.1177 2.3556 9.52891 2.34233 13 2.34233Z" fill="black"/>
<path d="M13.0068 17.3367C10.6135 17.3367 8.67338 15.3966 8.67338 13.0034C8.67338 10.6101 10.6135 8.67002 13.0068 8.67002C15.4 8.67002 17.3401 10.6101 17.3401 13.0034C17.3401 15.3966 15.4 17.3367 13.0068 17.3367ZM13.0068 6.32769C9.31983 6.32769 6.33105 9.31647 6.33105 13.0034C6.33105 16.6903 9.31983 19.679 13.0068 19.679C16.6936 19.679 19.6824 16.6903 19.6824 13.0034C19.6824 9.31647 16.6936 6.32769 13.0068 6.32769ZM21.5062 6.06393C21.5062 6.92553 20.8077 7.62392 19.9462 7.62392C19.0846 7.62392 18.3862 6.92553 18.3862 6.06393C18.3862 5.20237 19.0846 4.50391 19.9462 4.50391C20.8077 4.50391 21.5062 5.20237 21.5062 6.06393Z" fill="black"/>
</svg>
